<svg width="68" height="69" viewBox="0 0 68 69" fill="none" xmlns="http://www.w3.org/2000/svg">
<rect y="0.984375" width="68" height="68" rx="20" fill="#0328EE"/>
<g clip-path="url(#clip0_2_920)">
<path d="M31.2599 51.8023C41.7081 51.8023 50.1782 43.2791 50.1782 32.7652C50.1782 22.2513 41.7081 13.7281 31.2599 13.7281C20.8116 13.7281 12.3416 22.2513 12.3416 32.7652C12.3416 43.2791 20.8116 51.8023 31.2599 51.8023Z" fill="white"/>
<path opacity="0.4" d="M53.4258 57.6296C52.6909 57.6058 51.9921 57.3035 51.4694 56.7831L46.9893 51.5464C46.0288 50.668 45.9502 49.1752 46.8132 48.1996C47.2171 47.7909 47.7663 47.5611 48.3392 47.5611C48.912 47.5611 49.4612 47.7909 49.8652 48.1996L55.4996 52.7079C56.3112 53.5386 56.5616 54.7718 56.139 55.8563C55.7163 56.9408 54.6996 57.674 53.5432 57.7281L53.4258 57.6296Z" fill="white"/>
</g>
<defs>
<clipPath id="clip0_2_920">
<rect width="45" height="45" fill="white" transform="translate(12 12.9844)"/>
</clipPath>
</defs>
</svg>
